<svg width="100" height="100" viewBox="0 0 100 100" xmlns="http://www.w3.org/2000/svg">
  <rect width="100" height="100" rx="22" fill="#FFF9F3"/>
  <!-- Branch -->
  <path d="M15 75C25 72 45 70 85 75" stroke="#f3c4c4" stroke-linecap="round" stroke-width="3" fill="none"></path>
  <!-- Bird 1 -->
  <path d="M35 68C35 60 40 55 45 55C50 55 55 60 55 68" stroke="#f3c4c4" stroke-linecap="round" stroke-width="3" fill="none"></path>
  <circle cx="50" cy="50" r="8" stroke="#f3c4c4" stroke-width="3" fill="none"></circle>
  <!-- Bird 2 -->
  <path d="M55 68C55 60 60 55 65 55C70 55 75 60 75 68" stroke="#f3c4c4" stroke-linecap="round" stroke-width="3" fill="none"></path>
  <circle cx="65" cy="48" r="8" stroke="#f3c4c4" stroke-width="3" fill="none"></circle>
  <!-- Minimal Heart/Connection -->
  <path d="M57 35C57 35 57.5 32 60 32C62.5 32 63 35 63 35C63 35 63 38 60 40C57 38 57 35 57 35Z" fill="#f3c4c4"></path>
</svg>